<svg xmlns="http://www.w3.org/2000/svg" viewBox="0 0 100 100" width="512" height="512">
  <g stroke="#0C1826" stroke-width="5" stroke-linecap="round">
    <line x1="34" y1="18" x2="34" y2="9"></line><line x1="50" y1="18" x2="50" y2="9"></line><line x1="66" y1="18" x2="66" y2="9"></line>
    <line x1="34" y1="82" x2="34" y2="91"></line><line x1="50" y1="82" x2="50" y2="91"></line><line x1="66" y1="82" x2="66" y2="91"></line>
    <line x1="18" y1="34" x2="9" y2="34"></line><line x1="18" y1="50" x2="9" y2="50"></line><line x1="18" y1="66" x2="9" y2="66"></line>
    <line x1="82" y1="34" x2="91" y2="34"></line><line x1="82" y1="50" x2="91" y2="50"></line><line x1="82" y1="66" x2="91" y2="66"></line>
  </g>
  <rect x="18" y="18" width="64" height="64" rx="12" fill="#0C1826"></rect>
  <g stroke="#4D8DFF" stroke-width="7" stroke-linecap="round"><line x1="37" y1="37" x2="63" y2="63"></line><line x1="63" y1="37" x2="37" y2="63"></line></g>
</svg>